G04 Layer_Color=65535*
%FSLAX44Y44*%
%MOMM*%
G71*
G01*
G75*
%ADD11C,0.3000*%
%ADD32C,0.2540*%
%ADD33C,0.2000*%
G36*
X1006316Y396344D02*
X1006339D01*
X1006385Y396298D01*
X1006431Y396252D01*
X1006524Y396206D01*
X1006755Y396021D01*
X1007056Y395789D01*
X1007357Y395511D01*
X1007681Y395187D01*
X1007959Y394817D01*
X1008213Y394447D01*
X1008236Y394401D01*
X1008306Y394262D01*
X1008398Y394054D01*
X1008514Y393753D01*
X1008630Y393383D01*
X1008722Y392966D01*
X1008792Y392480D01*
X1008815Y391971D01*
Y391948D01*
Y391879D01*
Y391763D01*
X1008792Y391624D01*
X1008768Y391439D01*
X1008722Y391231D01*
X1008676Y390976D01*
X1008630Y390722D01*
X1008421Y390166D01*
X1008306Y389865D01*
X1008144Y389565D01*
X1007982Y389264D01*
X1007750Y388963D01*
X1007519Y388662D01*
X1007241Y388385D01*
X1007218Y388361D01*
X1007172Y388315D01*
X1007079Y388246D01*
X1006964Y388153D01*
X1006802Y388037D01*
X1006617Y387922D01*
X1006408Y387783D01*
X1006177Y387667D01*
X1005899Y387528D01*
X1005621Y387389D01*
X1005298Y387274D01*
X1004950Y387158D01*
X1004603Y387066D01*
X1004210Y386996D01*
X1003817Y386950D01*
X1003400Y386927D01*
X1003192D01*
X1002937Y386950D01*
X1002613Y386996D01*
X1002220Y387042D01*
X1001804Y387112D01*
X1001364Y387228D01*
X1000901Y387389D01*
Y391555D01*
X1000947Y391531D01*
X1001063Y391462D01*
X1001225Y391370D01*
X1001456Y391277D01*
X1001711Y391161D01*
X1001965Y391069D01*
X1002243Y390999D01*
X1002521Y390976D01*
X1002637D01*
X1002775Y390999D01*
X1002961Y391045D01*
X1003146Y391115D01*
X1003354Y391208D01*
X1003562Y391323D01*
X1003770Y391508D01*
X1003793Y391531D01*
X1003863Y391601D01*
X1003932Y391717D01*
X1004048Y391879D01*
X1004141Y392064D01*
X1004210Y392295D01*
X1004279Y392550D01*
X1004303Y392850D01*
Y392897D01*
Y393012D01*
X1004256Y393174D01*
X1004210Y393383D01*
X1004118Y393614D01*
X1003979Y393845D01*
X1003770Y394100D01*
X1003516Y394308D01*
X1003493Y394331D01*
X1003377Y394401D01*
X1003215Y394493D01*
X1002984Y394586D01*
X1002683Y394678D01*
X1002336Y394771D01*
X1001942Y394840D01*
X1001480Y394864D01*
X1002567Y397779D01*
X1000947D01*
Y402014D01*
X1008722D01*
X1006316Y396344D01*
D02*
G37*
G36*
X992617Y402361D02*
X992779Y402337D01*
X992964Y402314D01*
X993427Y402222D01*
X993936Y402083D01*
X994468Y401875D01*
X994723Y401736D01*
X995001Y401574D01*
X995255Y401366D01*
X995487Y401157D01*
X995510Y401134D01*
X995533Y401111D01*
X995602Y401042D01*
X995672Y400949D01*
X995787Y400810D01*
X995880Y400672D01*
X995995Y400509D01*
X996111Y400324D01*
X996343Y399862D01*
X996551Y399353D01*
X996690Y398728D01*
X996713Y398404D01*
X996736Y398057D01*
Y398034D01*
Y398010D01*
Y397941D01*
X996713Y397849D01*
X996690Y397594D01*
X996643Y397293D01*
X996528Y396923D01*
X996389Y396530D01*
X996204Y396136D01*
X995926Y395720D01*
X995972Y395673D01*
X996088Y395558D01*
X996227Y395373D01*
X996435Y395141D01*
X996643Y394864D01*
X996852Y394586D01*
X997037Y394262D01*
X997199Y393961D01*
X997222Y393915D01*
X997245Y393822D01*
X997315Y393660D01*
X997384Y393429D01*
X997430Y393151D01*
X997500Y392827D01*
X997523Y392457D01*
X997546Y392040D01*
Y392017D01*
Y391948D01*
Y391832D01*
X997523Y391670D01*
X997500Y391485D01*
X997477Y391277D01*
X997430Y391022D01*
X997361Y390768D01*
X997176Y390189D01*
X997060Y389889D01*
X996921Y389565D01*
X996736Y389264D01*
X996528Y388963D01*
X996296Y388662D01*
X996042Y388385D01*
X996019Y388361D01*
X995972Y388315D01*
X995880Y388246D01*
X995764Y388153D01*
X995625Y388037D01*
X995440Y387922D01*
X995255Y387783D01*
X995024Y387667D01*
X994746Y387528D01*
X994468Y387389D01*
X994167Y387274D01*
X993844Y387158D01*
X993496Y387066D01*
X993126Y386996D01*
X992733Y386950D01*
X992316Y386927D01*
X992108D01*
X991946Y386950D01*
X991761Y386973D01*
X991530Y386996D01*
X991275Y387042D01*
X990997Y387112D01*
X990419Y387274D01*
X990095Y387413D01*
X989794Y387551D01*
X989470Y387713D01*
X989169Y387899D01*
X988869Y388130D01*
X988568Y388385D01*
X988545Y388408D01*
X988498Y388454D01*
X988429Y388523D01*
X988336Y388639D01*
X988221Y388801D01*
X988105Y388963D01*
X987966Y389171D01*
X987827Y389380D01*
X987689Y389634D01*
X987550Y389912D01*
X987434Y390213D01*
X987318Y390536D01*
X987226Y390883D01*
X987156Y391254D01*
X987110Y391647D01*
X987087Y392040D01*
Y392064D01*
Y392087D01*
Y392226D01*
X987110Y392434D01*
X987133Y392688D01*
X987179Y392989D01*
X987226Y393313D01*
X987318Y393637D01*
X987434Y393961D01*
X987457Y394007D01*
X987503Y394100D01*
X987596Y394285D01*
X987735Y394493D01*
X987897Y394748D01*
X988128Y395049D01*
X988383Y395373D01*
X988683Y395720D01*
Y395743D01*
X988660Y395766D01*
X988568Y395905D01*
X988429Y396136D01*
X988290Y396414D01*
X988151Y396761D01*
X988012Y397154D01*
X987920Y397617D01*
X987897Y398080D01*
Y398103D01*
Y398172D01*
Y398265D01*
X987920Y398381D01*
X987943Y398543D01*
X987966Y398728D01*
X988059Y399168D01*
X988198Y399653D01*
X988406Y400162D01*
X988545Y400417D01*
X988730Y400672D01*
X988915Y400926D01*
X989123Y401157D01*
X989146Y401181D01*
X989193Y401204D01*
X989262Y401273D01*
X989354Y401343D01*
X989470Y401435D01*
X989609Y401551D01*
X989794Y401666D01*
X989979Y401782D01*
X990442Y401991D01*
X990997Y402199D01*
X991599Y402337D01*
X991946Y402361D01*
X992293Y402384D01*
X992478D01*
X992617Y402361D01*
D02*
G37*
G36*
X983824D02*
X984056Y402337D01*
X984333Y402314D01*
X984634Y402245D01*
X984958Y402176D01*
X985282Y402060D01*
Y397872D01*
X985259D01*
X985213Y397895D01*
X985120Y397918D01*
X985004Y397964D01*
X984773Y398010D01*
X984541Y398034D01*
X984472D01*
X984380Y398010D01*
X984264Y397987D01*
X984125Y397941D01*
X983986Y397872D01*
X983847Y397779D01*
X983708Y397663D01*
X983685Y397640D01*
X983662Y397594D01*
X983593Y397525D01*
X983547Y397409D01*
X983477Y397293D01*
X983408Y397131D01*
X983385Y396969D01*
X983361Y396784D01*
Y396761D01*
Y396692D01*
X983385Y396599D01*
X983408Y396460D01*
X983454Y396298D01*
X983523Y396113D01*
X983616Y395882D01*
X983732Y395650D01*
X984079Y395072D01*
Y395049D01*
X984125Y395002D01*
X984171Y394910D01*
X984218Y394794D01*
X984287Y394655D01*
X984356Y394493D01*
X984541Y394100D01*
X984704Y393637D01*
X984842Y393128D01*
X984935Y392596D01*
X984981Y392040D01*
Y392017D01*
Y391948D01*
Y391832D01*
X984958Y391693D01*
X984935Y391508D01*
X984912Y391277D01*
X984865Y391045D01*
X984796Y390791D01*
X984611Y390213D01*
X984495Y389912D01*
X984333Y389611D01*
X984171Y389287D01*
X983963Y388986D01*
X983732Y388685D01*
X983454Y388408D01*
X983431Y388385D01*
X983385Y388338D01*
X983292Y388269D01*
X983176Y388176D01*
X983037Y388060D01*
X982852Y387945D01*
X982644Y387806D01*
X982413Y387667D01*
X982158Y387528D01*
X981880Y387389D01*
X981557Y387274D01*
X981233Y387158D01*
X980885Y387066D01*
X980515Y386996D01*
X980122Y386950D01*
X979728Y386927D01*
X979543D01*
X979335Y386950D01*
X979081Y386996D01*
X978757Y387042D01*
X978410Y387135D01*
X978039Y387251D01*
X977646Y387413D01*
Y391647D01*
X977669Y391624D01*
X977762Y391601D01*
X977877Y391531D01*
X978016Y391462D01*
X978387Y391346D01*
X978572Y391300D01*
X978757Y391277D01*
X978849D01*
X978965Y391300D01*
X979081Y391323D01*
X979381Y391416D01*
X979543Y391485D01*
X979705Y391601D01*
X979728Y391624D01*
X979775Y391670D01*
X979821Y391740D01*
X979914Y391832D01*
X980029Y392087D01*
X980076Y392226D01*
X980099Y392411D01*
Y392434D01*
Y392480D01*
X980076Y392573D01*
X980029Y392712D01*
X979937Y392897D01*
X979844Y393151D01*
X979682Y393452D01*
X979474Y393822D01*
Y393845D01*
X979428Y393892D01*
X979381Y393984D01*
X979312Y394123D01*
X979243Y394285D01*
X979173Y394470D01*
X979081Y394678D01*
X978988Y394910D01*
X978803Y395442D01*
X978664Y396021D01*
X978548Y396645D01*
X978502Y397293D01*
Y397316D01*
Y397386D01*
Y397501D01*
X978525Y397640D01*
X978548Y397825D01*
X978572Y398034D01*
X978618Y398265D01*
X978687Y398520D01*
X978849Y399075D01*
X978988Y399376D01*
X979127Y399677D01*
X979289Y399977D01*
X979474Y400278D01*
X979705Y400579D01*
X979960Y400857D01*
X979983Y400880D01*
X980029Y400926D01*
X980122Y400995D01*
X980214Y401088D01*
X980376Y401204D01*
X980538Y401343D01*
X980747Y401481D01*
X980955Y401620D01*
X981209Y401759D01*
X981487Y401898D01*
X982089Y402152D01*
X982413Y402245D01*
X982760Y402314D01*
X983130Y402361D01*
X983500Y402384D01*
X983662D01*
X983824Y402361D01*
D02*
G37*
%LPC*%
G36*
X992293Y393730D02*
X992178D01*
X992039Y393707D01*
X991854Y393660D01*
X991668Y393591D01*
X991437Y393498D01*
X991229Y393383D01*
X991021Y393198D01*
X990997Y393174D01*
X990951Y393105D01*
X990859Y392989D01*
X990766Y392850D01*
X990674Y392665D01*
X990581Y392457D01*
X990535Y392226D01*
X990511Y391971D01*
Y391948D01*
Y391832D01*
X990535Y391693D01*
X990581Y391508D01*
X990627Y391300D01*
X990720Y391092D01*
X990835Y390860D01*
X990997Y390652D01*
X991021Y390629D01*
X991090Y390583D01*
X991206Y390490D01*
X991345Y390398D01*
X991530Y390305D01*
X991761Y390213D01*
X992016Y390166D01*
X992293Y390143D01*
X992432D01*
X992571Y390166D01*
X992733Y390213D01*
X992941Y390259D01*
X993149Y390351D01*
X993358Y390490D01*
X993566Y390652D01*
X993589Y390675D01*
X993635Y390745D01*
X993728Y390860D01*
X993820Y391022D01*
X993913Y391208D01*
X994006Y391439D01*
X994052Y391693D01*
X994075Y391971D01*
Y391994D01*
Y392087D01*
X994052Y392226D01*
X994006Y392388D01*
X993936Y392596D01*
X993844Y392781D01*
X993728Y392989D01*
X993543Y393198D01*
X993520Y393221D01*
X993450Y393290D01*
X993335Y393359D01*
X993196Y393475D01*
X993011Y393568D01*
X992802Y393637D01*
X992548Y393707D01*
X992293Y393730D01*
D02*
G37*
G36*
X992247Y399237D02*
X992178D01*
X992085Y399214D01*
X991969Y399191D01*
X991831Y399144D01*
X991692Y399075D01*
X991553Y398982D01*
X991414Y398867D01*
X991391Y398843D01*
X991368Y398797D01*
X991298Y398728D01*
X991252Y398635D01*
X991113Y398358D01*
X991090Y398196D01*
X991067Y398034D01*
Y398010D01*
Y397941D01*
X991090Y397849D01*
X991113Y397710D01*
X991159Y397571D01*
X991206Y397409D01*
X991298Y397247D01*
X991414Y397108D01*
X991437Y397085D01*
X991483Y397062D01*
X991553Y396992D01*
X991645Y396946D01*
X991784Y396877D01*
X991923Y396807D01*
X992108Y396784D01*
X992293Y396761D01*
X992386D01*
X992455Y396784D01*
X992571Y396807D01*
X992710Y396853D01*
X992849Y396923D01*
X992987Y397015D01*
X993126Y397131D01*
X993149Y397154D01*
X993196Y397201D01*
X993242Y397270D01*
X993311Y397386D01*
X993450Y397640D01*
X993473Y397802D01*
X993496Y397987D01*
Y398010D01*
Y398080D01*
X993473Y398172D01*
X993450Y398288D01*
X993404Y398427D01*
X993335Y398589D01*
X993242Y398728D01*
X993126Y398867D01*
X993103Y398890D01*
X993057Y398936D01*
X992987Y398982D01*
X992895Y399052D01*
X992756Y399121D01*
X992617Y399191D01*
X992432Y399214D01*
X992247Y399237D01*
D02*
G37*
%LPD*%
D11*
X1014747Y394765D02*
G03*
X1014730Y393901I-22132J0D01*
G01*
D32*
X419700Y524510D02*
G03*
X419700Y524510I-26000J0D01*
G01*
Y393700D02*
G03*
X419700Y393700I-26000J0D01*
G01*
X419500Y457200D02*
G03*
X419500Y457200I-26000J0D01*
G01*
X1124750Y736600D02*
G03*
X1124750Y736600I-26000J0D01*
G01*
X429260Y519267D02*
Y509270D01*
X435924D01*
X445921Y519267D02*
X439257D01*
Y509270D01*
X445921D01*
X439257Y514268D02*
X442589D01*
X449254Y519267D02*
Y509270D01*
X454252D01*
X455918Y510936D01*
Y517601D01*
X454252Y519267D01*
X449254D01*
X464249Y509270D02*
Y519267D01*
X459250Y514268D01*
X465915D01*
X1065530Y857087D02*
X1072195Y847090D01*
Y857087D02*
X1065530Y847090D01*
X1075527D02*
X1078859D01*
X1077193D01*
Y857087D01*
X1075527Y855421D01*
X1083857Y847090D02*
X1087190D01*
X1085524D01*
Y857087D01*
X1083857Y855421D01*
X622300Y797397D02*
X628965Y787400D01*
Y797397D02*
X622300Y787400D01*
X632297D02*
X635629D01*
X633963D01*
Y797397D01*
X632297Y795731D01*
X640627D02*
X642294Y797397D01*
X645626D01*
X647292Y795731D01*
Y789066D01*
X645626Y787400D01*
X642294D01*
X640627Y789066D01*
Y795731D01*
X330962Y763615D02*
X337626Y753618D01*
Y763615D02*
X330962Y753618D01*
X340959Y755284D02*
X342625Y753618D01*
X345957D01*
X347623Y755284D01*
Y761949D01*
X345957Y763615D01*
X342625D01*
X340959Y761949D01*
Y760283D01*
X342625Y758616D01*
X347623D01*
X428752Y449671D02*
Y439674D01*
X435416D01*
X445413Y449671D02*
X438749D01*
Y439674D01*
X445413D01*
X438749Y444672D02*
X442081D01*
X448746Y449671D02*
Y439674D01*
X453744D01*
X455410Y441340D01*
Y448005D01*
X453744Y449671D01*
X448746D01*
X458742Y448005D02*
X460409Y449671D01*
X463741D01*
X465407Y448005D01*
Y446339D01*
X463741Y444672D01*
X462075D01*
X463741D01*
X465407Y443006D01*
Y441340D01*
X463741Y439674D01*
X460409D01*
X458742Y441340D01*
X429260Y388457D02*
Y378460D01*
X435924D01*
X445921Y388457D02*
X439257D01*
Y378460D01*
X445921D01*
X439257Y383458D02*
X442589D01*
X449254Y388457D02*
Y378460D01*
X454252D01*
X455918Y380126D01*
Y386791D01*
X454252Y388457D01*
X449254D01*
X465915Y378460D02*
X459250D01*
X465915Y385125D01*
Y386791D01*
X464249Y388457D01*
X460916D01*
X459250Y386791D01*
X663194Y347817D02*
X669858Y337820D01*
Y347817D02*
X663194Y337820D01*
X673191D02*
X676523D01*
X674857D01*
Y347817D01*
X673191Y346151D01*
X486664Y797143D02*
X493329Y787146D01*
Y797143D02*
X486664Y787146D01*
X503325Y797143D02*
X496661D01*
Y792144D01*
X499993Y793811D01*
X501659D01*
X503325Y792144D01*
Y788812D01*
X501659Y787146D01*
X498327D01*
X496661Y788812D01*
X276098Y496153D02*
X282763Y486156D01*
Y496153D02*
X276098Y486156D01*
X286095Y496153D02*
X292759D01*
Y494487D01*
X286095Y487822D01*
Y486156D01*
X521879Y338836D02*
X531876Y345500D01*
X521879D02*
X531876Y338836D01*
X521879Y355497D02*
X523545Y352165D01*
X526878Y348833D01*
X530210D01*
X531876Y350499D01*
Y353831D01*
X530210Y355497D01*
X528544D01*
X526878Y353831D01*
Y348833D01*
X367955Y337820D02*
X377952Y344484D01*
X367955D02*
X377952Y337820D01*
Y352815D02*
X367955D01*
X372954Y347817D01*
Y354481D01*
X1168654Y787999D02*
X1175319Y778002D01*
Y787999D02*
X1168654Y778002D01*
X1178651Y786333D02*
X1180317Y787999D01*
X1183649D01*
X1185315Y786333D01*
Y784667D01*
X1183649Y783000D01*
X1185315Y781334D01*
Y779668D01*
X1183649Y778002D01*
X1180317D01*
X1178651Y779668D01*
Y781334D01*
X1180317Y783000D01*
X1178651Y784667D01*
Y786333D01*
X1180317Y783000D02*
X1183649D01*
X275844Y625693D02*
X282509Y615696D01*
Y625693D02*
X275844Y615696D01*
X285841Y624027D02*
X287507Y625693D01*
X290839D01*
X292505Y624027D01*
Y622360D01*
X290839Y620694D01*
X289173D01*
X290839D01*
X292505Y619028D01*
Y617362D01*
X290839Y615696D01*
X287507D01*
X285841Y617362D01*
X495300Y721197D02*
X498632D01*
X496966D01*
Y711200D01*
X495300D01*
X498632D01*
X510295Y719531D02*
X508629Y721197D01*
X505297D01*
X503631Y719531D01*
Y712866D01*
X505297Y711200D01*
X508629D01*
X510295Y712866D01*
X513627Y711200D02*
X516960D01*
X515294D01*
Y721197D01*
X513627Y719531D01*
X814070Y349341D02*
X820734Y339344D01*
Y349341D02*
X814070Y339344D01*
X830731D02*
X824067D01*
X830731Y346008D01*
Y347675D01*
X829065Y349341D01*
X825733D01*
X824067Y347675D01*
X1029970Y730087D02*
Y720090D01*
X1036635D01*
X1046631Y730087D02*
X1039967D01*
Y720090D01*
X1046631D01*
X1039967Y725088D02*
X1043299D01*
X1049964Y730087D02*
Y720090D01*
X1054962D01*
X1056628Y721756D01*
Y728421D01*
X1054962Y730087D01*
X1049964D01*
X1059960Y720090D02*
X1063293D01*
X1061627D01*
Y730087D01*
X1059960Y728421D01*
X1096770Y362073D02*
X1091438D01*
Y358075D01*
X1094104D01*
X1091438D01*
Y354076D01*
X1099435D02*
Y362073D01*
X1103434D01*
X1104767Y360741D01*
Y358075D01*
X1103434Y356742D01*
X1099435D01*
X1102101D02*
X1104767Y354076D01*
X1112764Y362073D02*
X1107433D01*
Y354076D01*
X1112764D01*
X1107433Y358075D02*
X1110099D01*
X1120762Y362073D02*
X1115430D01*
Y354076D01*
X1120762D01*
X1115430Y358075D02*
X1118096D01*
X1136757Y360741D02*
X1135424Y362073D01*
X1132758D01*
X1131425Y360741D01*
Y355409D01*
X1132758Y354076D01*
X1135424D01*
X1136757Y355409D01*
Y358075D01*
X1134091D01*
X1139423Y354076D02*
Y362073D01*
X1143421D01*
X1144754Y360741D01*
Y358075D01*
X1143421Y356742D01*
X1139423D01*
X1147420Y362073D02*
X1150086D01*
X1148753D01*
Y354076D01*
X1147420D01*
X1150086D01*
X1158083Y362073D02*
X1155417D01*
X1154084Y360741D01*
Y355409D01*
X1155417Y354076D01*
X1158083D01*
X1159416Y355409D01*
Y360741D01*
X1158083Y362073D01*
X350175Y538853D02*
Y535521D01*
X351841Y533855D01*
X358506D01*
X360172Y535521D01*
Y538853D01*
X358506Y540519D01*
X351841D01*
X350175Y538853D01*
Y543852D02*
X358506D01*
X360172Y545518D01*
Y548850D01*
X358506Y550516D01*
X350175D01*
Y553848D02*
Y560513D01*
Y557181D01*
X360172D01*
X352612Y580286D02*
X350946Y581952D01*
X347614D01*
X345948Y580286D01*
Y573621D01*
X347614Y571955D01*
X350946D01*
X352612Y573621D01*
Y576953D01*
X349280D01*
X355945Y571955D02*
Y581952D01*
X362609Y571955D01*
Y581952D01*
X365942D02*
Y571955D01*
X370940D01*
X372606Y573621D01*
Y580286D01*
X370940Y581952D01*
X365942D01*
X343408Y430314D02*
Y420317D01*
X346740Y423649D01*
X350073Y420317D01*
Y430314D01*
X358403D02*
X355071D01*
X353405Y428648D01*
Y421983D01*
X355071Y420317D01*
X358403D01*
X360069Y421983D01*
Y428648D01*
X358403Y430314D01*
X363402Y420317D02*
Y430314D01*
X368400D01*
X370066Y428648D01*
Y425315D01*
X368400Y423649D01*
X363402D01*
X366734D02*
X370066Y420317D01*
X373398Y430314D02*
Y420317D01*
Y423649D01*
X380063Y430314D01*
X375065Y425315D01*
X380063Y420317D01*
X352126Y372819D02*
Y379483D01*
X348793Y376151D02*
X355458D01*
X347127Y389480D02*
Y382816D01*
X352126D01*
X350460Y386148D01*
Y387814D01*
X352126Y389480D01*
X355458D01*
X357124Y387814D01*
Y384482D01*
X355458Y382816D01*
X347127Y392812D02*
X353792D01*
X357124Y396145D01*
X353792Y399477D01*
X347127D01*
X348539Y455683D02*
X346873Y454017D01*
Y450685D01*
X348539Y449019D01*
X355204D01*
X356870Y450685D01*
Y454017D01*
X355204Y455683D01*
X351872D01*
Y452351D01*
X356870Y459016D02*
X346873D01*
X356870Y465680D01*
X346873D01*
Y469012D02*
X356870D01*
Y474011D01*
X355204Y475677D01*
X348539D01*
X346873Y474011D01*
Y469012D01*
X1178560Y639917D02*
Y631586D01*
X1180226Y629920D01*
X1183558D01*
X1185225Y631586D01*
Y639917D01*
X1188557Y629920D02*
Y636585D01*
X1191889Y639917D01*
X1195221Y636585D01*
Y629920D01*
Y634918D01*
X1188557D01*
X1198554Y629920D02*
Y639917D01*
X1203552D01*
X1205218Y638251D01*
Y634918D01*
X1203552Y633252D01*
X1198554D01*
X1201886D02*
X1205218Y629920D01*
X1208550Y639917D02*
X1215215D01*
X1211883D01*
Y629920D01*
X435924Y535381D02*
X434258Y537047D01*
X430926D01*
X429260Y535381D01*
Y533714D01*
X430926Y532048D01*
X434258D01*
X435924Y530382D01*
Y528716D01*
X434258Y527050D01*
X430926D01*
X429260Y528716D01*
X439257Y527050D02*
Y537047D01*
X444255D01*
X445921Y535381D01*
Y532048D01*
X444255Y530382D01*
X439257D01*
X449254Y537047D02*
Y527050D01*
X454252D01*
X455918Y528716D01*
Y535381D01*
X454252Y537047D01*
X449254D01*
X459250D02*
X462583D01*
X460916D01*
Y527050D01*
X459250D01*
X462583D01*
X474245Y537047D02*
X467581D01*
Y532048D01*
X470913D01*
X467581D01*
Y527050D01*
X845312Y501142D02*
Y511139D01*
X850310D01*
X851976Y509473D01*
Y506140D01*
X850310Y504474D01*
X845312D01*
X848644D02*
X851976Y501142D01*
X860307D02*
X856975D01*
X855309Y502808D01*
Y506140D01*
X856975Y507807D01*
X860307D01*
X861973Y506140D01*
Y504474D01*
X855309D01*
X865306Y501142D02*
Y507807D01*
X866972D01*
X868638Y506140D01*
Y501142D01*
Y506140D01*
X870304Y507807D01*
X871970Y506140D01*
Y501142D01*
X876969D02*
X880301D01*
X881967Y502808D01*
Y506140D01*
X880301Y507807D01*
X876969D01*
X875302Y506140D01*
Y502808D01*
X876969Y501142D01*
X885299Y507807D02*
X888631Y501142D01*
X891964Y507807D01*
X900294Y501142D02*
X896962D01*
X895296Y502808D01*
Y506140D01*
X896962Y507807D01*
X900294D01*
X901960Y506140D01*
Y504474D01*
X895296D01*
X916956Y501142D02*
Y509473D01*
Y506140D01*
X915290D01*
X918622D01*
X916956D01*
Y509473D01*
X918622Y511139D01*
X925286Y501142D02*
X928618D01*
X930285Y502808D01*
Y506140D01*
X928618Y507807D01*
X925286D01*
X923620Y506140D01*
Y502808D01*
X925286Y501142D01*
X933617Y507807D02*
Y501142D01*
Y504474D01*
X935283Y506140D01*
X936949Y507807D01*
X938615D01*
X953610Y501142D02*
Y511139D01*
X960275Y501142D01*
Y511139D01*
X965273Y507807D02*
X968606D01*
X970272Y506140D01*
Y501142D01*
X965273D01*
X963607Y502808D01*
X965273Y504474D01*
X970272D01*
X973604Y501142D02*
Y507807D01*
X978602D01*
X980268Y506140D01*
Y501142D01*
X985267D02*
X988599D01*
X990265Y502808D01*
Y506140D01*
X988599Y507807D01*
X985267D01*
X983601Y506140D01*
Y502808D01*
X985267Y501142D01*
X1003594D02*
Y511139D01*
X1008593D01*
X1010259Y509473D01*
Y506140D01*
X1008593Y504474D01*
X1003594D01*
X1013591Y501142D02*
X1016923D01*
X1015257D01*
Y507807D01*
X1013591D01*
X1031918Y501142D02*
Y511139D01*
X1038583Y501142D01*
Y511139D01*
X1048580D02*
X1041915D01*
Y501142D01*
X1048580D01*
X1041915Y506140D02*
X1045248D01*
X1056910Y511139D02*
X1053578D01*
X1051912Y509473D01*
Y502808D01*
X1053578Y501142D01*
X1056910D01*
X1058577Y502808D01*
Y509473D01*
X1056910Y511139D01*
X849681Y345755D02*
X848015Y344088D01*
Y340756D01*
X849681Y339090D01*
X856346D01*
X858012Y340756D01*
Y344088D01*
X856346Y345755D01*
X853014D01*
Y342422D01*
X858012Y349087D02*
X848015D01*
X858012Y355751D01*
X848015D01*
Y359084D02*
X858012D01*
Y364082D01*
X856346Y365748D01*
X849681D01*
X848015Y364082D01*
Y359084D01*
X928960Y338074D02*
Y344739D01*
X925627Y341406D02*
X932292D01*
X923961Y354735D02*
Y348071D01*
X928960D01*
X927293Y351403D01*
Y353069D01*
X928960Y354735D01*
X932292D01*
X933958Y353069D01*
Y349737D01*
X932292Y348071D01*
X923961Y358068D02*
X930626D01*
X933958Y361400D01*
X930626Y364732D01*
X923961D01*
X900735Y345755D02*
X899069Y344088D01*
Y340756D01*
X900735Y339090D01*
X902402D01*
X904068Y340756D01*
Y344088D01*
X905734Y345755D01*
X907400D01*
X909066Y344088D01*
Y340756D01*
X907400Y339090D01*
X900735Y355751D02*
X899069Y354085D01*
Y350753D01*
X900735Y349087D01*
X907400D01*
X909066Y350753D01*
Y354085D01*
X907400Y355751D01*
X899069Y359084D02*
X909066D01*
Y365748D01*
X874573Y345755D02*
X872907Y344088D01*
Y340756D01*
X874573Y339090D01*
X876239D01*
X877906Y340756D01*
Y344088D01*
X879572Y345755D01*
X881238D01*
X882904Y344088D01*
Y340756D01*
X881238Y339090D01*
X872907Y349087D02*
X882904D01*
Y354085D01*
X881238Y355751D01*
X874573D01*
X872907Y354085D01*
Y349087D01*
X882904Y359084D02*
X876239D01*
X872907Y362416D01*
X876239Y365748D01*
X882904D01*
X877906D01*
Y359084D01*
X719887Y345247D02*
X718221Y343580D01*
Y340248D01*
X719887Y338582D01*
X721553D01*
X723220Y340248D01*
Y343580D01*
X724886Y345247D01*
X726552D01*
X728218Y343580D01*
Y340248D01*
X726552Y338582D01*
X718221Y348579D02*
X728218D01*
Y353577D01*
X726552Y355243D01*
X719887D01*
X718221Y353577D01*
Y348579D01*
X728218Y358576D02*
X721553D01*
X718221Y361908D01*
X721553Y365240D01*
X728218D01*
X723220D01*
Y358576D01*
X745033Y345247D02*
X743367Y343580D01*
Y340248D01*
X745033Y338582D01*
X746700D01*
X748366Y340248D01*
Y343580D01*
X750032Y345247D01*
X751698D01*
X753364Y343580D01*
Y340248D01*
X751698Y338582D01*
X745033Y355243D02*
X743367Y353577D01*
Y350245D01*
X745033Y348579D01*
X751698D01*
X753364Y350245D01*
Y353577D01*
X751698Y355243D01*
X743367Y358576D02*
X753364D01*
Y365240D01*
X694741Y345247D02*
X693075Y343580D01*
Y340248D01*
X694741Y338582D01*
X701406D01*
X703072Y340248D01*
Y343580D01*
X701406Y345247D01*
X698074D01*
Y341914D01*
X703072Y348579D02*
X693075D01*
X703072Y355243D01*
X693075D01*
Y358576D02*
X703072D01*
Y363574D01*
X701406Y365240D01*
X694741D01*
X693075Y363574D01*
Y358576D01*
X592491Y337566D02*
X602488D01*
Y342564D01*
X600822Y344230D01*
X594157D01*
X592491Y342564D01*
Y337566D01*
X597490Y347563D02*
Y354227D01*
X564805Y337820D02*
X574802D01*
Y342818D01*
X573136Y344484D01*
X566471D01*
X564805Y342818D01*
Y337820D01*
X569804Y347817D02*
Y354481D01*
X566471Y351149D02*
X573136D01*
X542849Y343469D02*
X541183Y341802D01*
Y338470D01*
X542849Y336804D01*
X549514D01*
X551180Y338470D01*
Y341802D01*
X549514Y343469D01*
X546182D01*
Y340136D01*
X551180Y346801D02*
X541183D01*
X551180Y353465D01*
X541183D01*
Y356798D02*
X551180D01*
Y361796D01*
X549514Y363462D01*
X542849D01*
X541183Y361796D01*
Y356798D01*
X390449Y343214D02*
X388783Y341548D01*
Y338216D01*
X390449Y336550D01*
X397114D01*
X398780Y338216D01*
Y341548D01*
X397114Y343214D01*
X393782D01*
Y339882D01*
X398780Y346547D02*
X388783D01*
X398780Y353211D01*
X388783D01*
Y356544D02*
X398780D01*
Y361542D01*
X397114Y363208D01*
X390449D01*
X388783Y361542D01*
Y356544D01*
X503083Y285750D02*
X511414D01*
X513080Y287416D01*
Y290748D01*
X511414Y292414D01*
X503083D01*
X504749Y302411D02*
X503083Y300745D01*
Y297413D01*
X504749Y295747D01*
X506415D01*
X508082Y297413D01*
Y300745D01*
X509748Y302411D01*
X511414D01*
X513080Y300745D01*
Y297413D01*
X511414Y295747D01*
X503083Y305744D02*
X513080D01*
Y310742D01*
X511414Y312408D01*
X509748D01*
X508082Y310742D01*
Y305744D01*
Y310742D01*
X506415Y312408D01*
X504749D01*
X503083Y310742D01*
Y305744D01*
X413421Y337058D02*
X423418D01*
Y342056D01*
X421752Y343722D01*
X415087D01*
X413421Y342056D01*
Y337058D01*
X418420Y347055D02*
Y353719D01*
X415087Y350387D02*
X421752D01*
X439329Y337312D02*
X449326D01*
Y342310D01*
X447660Y343977D01*
X440995D01*
X439329Y342310D01*
Y337312D01*
X444328Y347309D02*
Y353973D01*
X469220Y337058D02*
Y343722D01*
X465887Y340390D02*
X472552D01*
X464221Y353719D02*
Y347055D01*
X469220D01*
X467553Y350387D01*
Y352053D01*
X469220Y353719D01*
X472552D01*
X474218Y352053D01*
Y348721D01*
X472552Y347055D01*
X464221Y357052D02*
X470886D01*
X474218Y360384D01*
X470886Y363716D01*
X464221D01*
X775036Y338836D02*
Y345500D01*
X771703Y342168D02*
X778368D01*
X770037Y355497D02*
Y348833D01*
X775036D01*
X773370Y352165D01*
Y353831D01*
X775036Y355497D01*
X778368D01*
X780034Y353831D01*
Y350499D01*
X778368Y348833D01*
X770037Y358830D02*
X776702D01*
X780034Y362162D01*
X776702Y365494D01*
X770037D01*
X622382Y338074D02*
Y344739D01*
X619049Y341406D02*
X625714D01*
X617383Y354735D02*
Y348071D01*
X622382D01*
X620715Y351403D01*
Y353069D01*
X622382Y354735D01*
X625714D01*
X627380Y353069D01*
Y349737D01*
X625714Y348071D01*
X617383Y358068D02*
X624048D01*
X627380Y361400D01*
X624048Y364732D01*
X617383D01*
X680883Y769874D02*
X690880D01*
Y774872D01*
X689214Y776538D01*
X687548D01*
X685882Y774872D01*
Y769874D01*
Y774872D01*
X684215Y776538D01*
X682549D01*
X680883Y774872D01*
Y769874D01*
X682549Y786535D02*
X680883Y784869D01*
Y781537D01*
X682549Y779871D01*
X689214D01*
X690880Y781537D01*
Y784869D01*
X689214Y786535D01*
X680883Y789868D02*
X690880D01*
Y796532D01*
X680883Y799864D02*
X690880D01*
X687548D01*
X680883Y806529D01*
X685882Y801531D01*
X690880Y806529D01*
X731683Y769366D02*
X741680D01*
Y774364D01*
X740014Y776031D01*
X733349D01*
X731683Y774364D01*
Y769366D01*
X741680Y779363D02*
X735015D01*
X731683Y782695D01*
X735015Y786027D01*
X741680D01*
X736682D01*
Y779363D01*
X731683Y789360D02*
Y796024D01*
Y792692D01*
X741680D01*
Y799356D02*
X735015D01*
X731683Y802689D01*
X735015Y806021D01*
X741680D01*
X736682D01*
Y799356D01*
X782229Y768858D02*
X792226D01*
Y775523D01*
Y778855D02*
X782229D01*
Y783853D01*
X783895Y785519D01*
X787228D01*
X788894Y783853D01*
Y778855D01*
Y782187D02*
X792226Y785519D01*
X783895Y795516D02*
X782229Y793850D01*
Y790518D01*
X783895Y788852D01*
X790560D01*
X792226Y790518D01*
Y793850D01*
X790560Y795516D01*
X782229Y798848D02*
X792226D01*
X788894D01*
X782229Y805513D01*
X787228Y800515D01*
X792226Y805513D01*
X809549Y785174D02*
X807883Y783508D01*
Y780176D01*
X809549Y778510D01*
X816214D01*
X817880Y780176D01*
Y783508D01*
X816214Y785174D01*
X812882D01*
Y781842D01*
X817880Y788507D02*
X807883D01*
X817880Y795171D01*
X807883D01*
Y798504D02*
X817880D01*
Y803502D01*
X816214Y805168D01*
X809549D01*
X807883Y803502D01*
Y798504D01*
X758749Y785174D02*
X757083Y783508D01*
Y780176D01*
X758749Y778510D01*
X765414D01*
X767080Y780176D01*
Y783508D01*
X765414Y785174D01*
X762082D01*
Y781842D01*
X767080Y788507D02*
X757083D01*
X767080Y795171D01*
X757083D01*
Y798504D02*
X767080D01*
Y803502D01*
X765414Y805168D01*
X758749D01*
X757083Y803502D01*
Y798504D01*
X707949Y785174D02*
X706283Y783508D01*
Y780176D01*
X707949Y778510D01*
X714614D01*
X716280Y780176D01*
Y783508D01*
X714614Y785174D01*
X711282D01*
Y781842D01*
X716280Y788507D02*
X706283D01*
X716280Y795171D01*
X706283D01*
Y798504D02*
X716280D01*
Y803502D01*
X714614Y805168D01*
X707949D01*
X706283Y803502D01*
Y798504D01*
X657149Y785174D02*
X655483Y783508D01*
Y780176D01*
X657149Y778510D01*
X663814D01*
X665480Y780176D01*
Y783508D01*
X663814Y785174D01*
X660482D01*
Y781842D01*
X665480Y788507D02*
X655483D01*
X665480Y795171D01*
X655483D01*
Y798504D02*
X665480D01*
Y803502D01*
X663814Y805168D01*
X657149D01*
X655483Y803502D01*
Y798504D01*
X593649Y786444D02*
X591983Y784778D01*
Y781446D01*
X593649Y779780D01*
X600314D01*
X601980Y781446D01*
Y784778D01*
X600314Y786444D01*
X596982D01*
Y783112D01*
X601980Y789777D02*
X591983D01*
X601980Y796441D01*
X591983D01*
Y799774D02*
X601980D01*
Y804772D01*
X600314Y806438D01*
X593649D01*
X591983Y804772D01*
Y799774D01*
X568249Y786444D02*
X566583Y784778D01*
Y781446D01*
X568249Y779780D01*
X574914D01*
X576580Y781446D01*
Y784778D01*
X574914Y786444D01*
X571582D01*
Y783112D01*
X576580Y789777D02*
X566583D01*
X576580Y796441D01*
X566583D01*
Y799774D02*
X576580D01*
Y804772D01*
X574914Y806438D01*
X568249D01*
X566583Y804772D01*
Y799774D01*
X546182Y778510D02*
Y785174D01*
X542849Y781842D02*
X549514D01*
X541183Y795171D02*
Y788507D01*
X546182D01*
X544515Y791839D01*
Y793505D01*
X546182Y795171D01*
X549514D01*
X551180Y793505D01*
Y790173D01*
X549514Y788507D01*
X541183Y798504D02*
X547848D01*
X551180Y801836D01*
X547848Y805168D01*
X541183D01*
X520782Y778510D02*
Y785174D01*
X517449Y781842D02*
X524114D01*
X515783Y795171D02*
Y788507D01*
X520782D01*
X519115Y791839D01*
Y793505D01*
X520782Y795171D01*
X524114D01*
X525780Y793505D01*
Y790173D01*
X524114Y788507D01*
X515783Y798504D02*
X522448D01*
X525780Y801836D01*
X522448Y805168D01*
X515783D01*
X349921Y287782D02*
X358252D01*
X359918Y289448D01*
Y292780D01*
X358252Y294447D01*
X349921D01*
X351587Y304443D02*
X349921Y302777D01*
Y299445D01*
X351587Y297779D01*
X353254D01*
X354920Y299445D01*
Y302777D01*
X356586Y304443D01*
X358252D01*
X359918Y302777D01*
Y299445D01*
X358252Y297779D01*
X349921Y307776D02*
X359918D01*
Y312774D01*
X358252Y314440D01*
X356586D01*
X354920Y312774D01*
Y307776D01*
Y312774D01*
X353254Y314440D01*
X351587D01*
X349921Y312774D01*
Y307776D01*
X655229Y287020D02*
Y290352D01*
Y288686D01*
X665226D01*
Y287020D01*
Y290352D01*
Y302015D02*
Y295351D01*
X658561Y302015D01*
X656895D01*
X655229Y300349D01*
Y297017D01*
X656895Y295351D01*
Y312012D02*
X655229Y310346D01*
Y307014D01*
X656895Y305347D01*
X663560D01*
X665226Y307014D01*
Y310346D01*
X663560Y312012D01*
X427990Y401238D02*
X434655D01*
X431322Y404571D02*
Y397906D01*
X444651Y406237D02*
X437987D01*
Y401238D01*
X441319Y402905D01*
X442985D01*
X444651Y401238D01*
Y397906D01*
X442985Y396240D01*
X439653D01*
X437987Y397906D01*
X447984Y406237D02*
Y399572D01*
X451316Y396240D01*
X454648Y399572D01*
Y406237D01*
X472976D02*
X469643D01*
X467977Y404571D01*
Y397906D01*
X469643Y396240D01*
X472976D01*
X474642Y397906D01*
Y404571D01*
X472976Y406237D01*
X477974Y396240D02*
Y406237D01*
Y399572D02*
X482972Y402905D01*
X477974Y399572D02*
X482972Y396240D01*
X428498Y470245D02*
Y460248D01*
X431830Y463580D01*
X435163Y460248D01*
Y470245D01*
X443493D02*
X440161D01*
X438495Y468579D01*
Y461914D01*
X440161Y460248D01*
X443493D01*
X445159Y461914D01*
Y468579D01*
X443493Y470245D01*
X448492Y460248D02*
Y470245D01*
X453490D01*
X455156Y468579D01*
Y465246D01*
X453490Y463580D01*
X448492D01*
X451824D02*
X455156Y460248D01*
X458488Y470245D02*
Y460248D01*
Y463580D01*
X465153Y470245D01*
X460154Y465246D01*
X465153Y460248D01*
X276860Y504190D02*
Y514187D01*
X281858D01*
X283524Y512521D01*
Y509188D01*
X281858Y507522D01*
X276860D01*
X291855Y514187D02*
X288523D01*
X286857Y512521D01*
Y505856D01*
X288523Y504190D01*
X291855D01*
X293521Y505856D01*
Y512521D01*
X291855Y514187D01*
X296854D02*
Y504190D01*
X300186Y507522D01*
X303518Y504190D01*
Y514187D01*
X313515D02*
X306850D01*
Y504190D01*
X313515D01*
X306850Y509188D02*
X310183D01*
X316847Y504190D02*
Y514187D01*
X321846D01*
X323512Y512521D01*
Y509188D01*
X321846Y507522D01*
X316847D01*
X320179D02*
X323512Y504190D01*
X336841Y514187D02*
X340173D01*
X338507D01*
Y504190D01*
X336841D01*
X340173D01*
X345171D02*
Y514187D01*
X351836Y504190D01*
Y514187D01*
X379984Y740501D02*
Y730504D01*
X386648D01*
X389981Y740501D02*
X393313D01*
X391647D01*
Y730504D01*
X389981D01*
X393313D01*
X398311D02*
Y740501D01*
X404976Y730504D01*
Y740501D01*
X414973D02*
X408308D01*
Y730504D01*
X414973D01*
X408308Y735502D02*
X411641D01*
X433300Y740501D02*
X429968D01*
X428302Y738835D01*
Y732170D01*
X429968Y730504D01*
X433300D01*
X434966Y732170D01*
Y738835D01*
X433300Y740501D01*
X438298D02*
Y732170D01*
X439965Y730504D01*
X443297D01*
X444963Y732170D01*
Y740501D01*
X448295D02*
X454960D01*
X451628D01*
Y730504D01*
X830743Y778510D02*
Y781842D01*
Y780176D01*
X840740D01*
Y778510D01*
Y781842D01*
Y793505D02*
Y786841D01*
X834075Y793505D01*
X832409D01*
X830743Y791839D01*
Y788507D01*
X832409Y786841D01*
Y803502D02*
X830743Y801836D01*
Y798504D01*
X832409Y796837D01*
X834075D01*
X835742Y798504D01*
Y801836D01*
X837408Y803502D01*
X839074D01*
X840740Y801836D01*
Y798504D01*
X839074Y796837D01*
X873049Y794064D02*
X871383Y792398D01*
Y789066D01*
X873049Y787400D01*
X879714D01*
X881380Y789066D01*
Y792398D01*
X879714Y794064D01*
X876382D01*
Y790732D01*
X873049Y804061D02*
X871383Y802395D01*
Y799063D01*
X873049Y797397D01*
X874715D01*
X876382Y799063D01*
Y802395D01*
X878048Y804061D01*
X879714D01*
X881380Y802395D01*
Y799063D01*
X879714Y797397D01*
X898449Y785174D02*
X896783Y783508D01*
Y780176D01*
X898449Y778510D01*
X905114D01*
X906780Y780176D01*
Y783508D01*
X905114Y785174D01*
X896783Y788507D02*
X906780D01*
Y795171D01*
X896783Y798504D02*
X906780D01*
X903448D01*
X896783Y805168D01*
X901782Y800170D01*
X906780Y805168D01*
X922183Y770890D02*
X932180D01*
Y775888D01*
X930514Y777554D01*
X923849D01*
X922183Y775888D01*
Y770890D01*
Y780887D02*
Y784219D01*
Y782553D01*
X932180D01*
Y780887D01*
Y784219D01*
X922183Y789217D02*
X928848D01*
X932180Y792550D01*
X928848Y795882D01*
X922183D01*
X923849Y799214D02*
X922183Y800880D01*
Y804213D01*
X923849Y805879D01*
X930514D01*
X932180Y804213D01*
Y800880D01*
X930514Y799214D01*
X923849D01*
X957580Y773430D02*
X947583D01*
X950916Y776762D01*
X947583Y780095D01*
X957580D01*
X947583Y788425D02*
Y785093D01*
X949249Y783427D01*
X955914D01*
X957580Y785093D01*
Y788425D01*
X955914Y790091D01*
X949249D01*
X947583Y788425D01*
X949249Y800088D02*
X947583Y798422D01*
Y795090D01*
X949249Y793424D01*
X950916D01*
X952582Y795090D01*
Y798422D01*
X954248Y800088D01*
X955914D01*
X957580Y798422D01*
Y795090D01*
X955914Y793424D01*
X947583Y803420D02*
Y806753D01*
Y805087D01*
X957580D01*
Y803420D01*
Y806753D01*
X972983Y774700D02*
X982980D01*
Y779698D01*
X981314Y781365D01*
X974649D01*
X972983Y779698D01*
Y774700D01*
Y784697D02*
Y788029D01*
Y786363D01*
X982980D01*
Y784697D01*
Y788029D01*
X972983Y793027D02*
X979648D01*
X982980Y796360D01*
X979648Y799692D01*
X972983D01*
X982980Y803024D02*
Y806357D01*
Y804690D01*
X972983D01*
X974649Y803024D01*
X1000049Y796605D02*
X998383Y794938D01*
Y791606D01*
X1000049Y789940D01*
X1006714D01*
X1008380Y791606D01*
Y794938D01*
X1006714Y796605D01*
X1000049Y806601D02*
X998383Y804935D01*
Y801603D01*
X1000049Y799937D01*
X1001715D01*
X1003382Y801603D01*
Y804935D01*
X1005048Y806601D01*
X1006714D01*
X1008380Y804935D01*
Y801603D01*
X1006714Y799937D01*
X1035050Y772160D02*
X1025053D01*
X1028385Y775492D01*
X1025053Y778824D01*
X1035050D01*
X1025053Y782157D02*
Y785489D01*
Y783823D01*
X1035050D01*
Y782157D01*
Y785489D01*
X1026719Y797152D02*
X1025053Y795486D01*
Y792154D01*
X1026719Y790487D01*
X1028385D01*
X1030052Y792154D01*
Y795486D01*
X1031718Y797152D01*
X1033384D01*
X1035050Y795486D01*
Y792154D01*
X1033384Y790487D01*
X1025053Y805483D02*
Y802150D01*
X1026719Y800484D01*
X1033384D01*
X1035050Y802150D01*
Y805483D01*
X1033384Y807149D01*
X1026719D01*
X1025053Y805483D01*
X1141730Y745327D02*
X1148394D01*
X1145062D01*
Y735330D01*
X1151727Y745327D02*
X1158391Y735330D01*
Y745327D02*
X1151727Y735330D01*
X1143000Y709930D02*
Y719927D01*
X1147998D01*
X1149665Y718261D01*
Y714928D01*
X1147998Y713262D01*
X1143000D01*
X1146332D02*
X1149665Y709930D01*
X1152997Y719927D02*
X1159661Y709930D01*
Y719927D02*
X1152997Y709930D01*
X1189035Y657301D02*
X1187368Y658967D01*
X1184036D01*
X1182370Y657301D01*
Y650636D01*
X1184036Y648970D01*
X1187368D01*
X1189035Y650636D01*
Y653968D01*
X1185702D01*
X1192367Y648970D02*
Y658967D01*
X1199031Y648970D01*
Y658967D01*
X1202364D02*
Y648970D01*
X1207362D01*
X1209028Y650636D01*
Y657301D01*
X1207362Y658967D01*
X1202364D01*
X282255Y642061D02*
X280588Y643727D01*
X277256D01*
X275590Y642061D01*
Y640395D01*
X277256Y638728D01*
X280588D01*
X282255Y637062D01*
Y635396D01*
X280588Y633730D01*
X277256D01*
X275590Y635396D01*
X285587Y633730D02*
Y643727D01*
X290585D01*
X292251Y642061D01*
Y638728D01*
X290585Y637062D01*
X285587D01*
X295584Y643727D02*
Y633730D01*
X300582D01*
X302248Y635396D01*
Y642061D01*
X300582Y643727D01*
X295584D01*
X305580D02*
X308913D01*
X307246D01*
Y633730D01*
X305580D01*
X308913D01*
X320575Y643727D02*
X313911D01*
Y638728D01*
X317243D01*
X313911D01*
Y633730D01*
X1072195Y833831D02*
X1070528Y835497D01*
X1067196D01*
X1065530Y833831D01*
Y832165D01*
X1067196Y830498D01*
X1070528D01*
X1072195Y828832D01*
Y827166D01*
X1070528Y825500D01*
X1067196D01*
X1065530Y827166D01*
X1075527Y825500D02*
Y835497D01*
X1080525D01*
X1082191Y833831D01*
Y830498D01*
X1080525Y828832D01*
X1075527D01*
X1085524Y835497D02*
X1088856D01*
X1087190D01*
Y825500D01*
X1085524D01*
X1088856D01*
X808899Y287782D02*
Y291114D01*
Y289448D01*
X818896D01*
Y287782D01*
Y291114D01*
Y302777D02*
Y296113D01*
X812232Y302777D01*
X810565D01*
X808899Y301111D01*
Y297779D01*
X810565Y296113D01*
Y312774D02*
X808899Y311108D01*
Y307776D01*
X810565Y306109D01*
X817230D01*
X818896Y307776D01*
Y311108D01*
X817230Y312774D01*
X1029970Y747867D02*
X1036635D01*
X1033302D01*
Y737870D01*
X1039967Y747867D02*
X1046631Y737870D01*
Y747867D02*
X1039967Y737870D01*
X1026922Y409285D02*
Y399288D01*
X1031920D01*
X1033587Y400954D01*
Y402620D01*
X1031920Y404286D01*
X1026922D01*
X1031920D01*
X1033587Y405952D01*
Y407619D01*
X1031920Y409285D01*
X1026922D01*
X1038585Y399288D02*
X1041917D01*
X1043583Y400954D01*
Y404286D01*
X1041917Y405952D01*
X1038585D01*
X1036919Y404286D01*
Y400954D01*
X1038585Y399288D01*
X1048582Y405952D02*
X1051914D01*
X1053580Y404286D01*
Y399288D01*
X1048582D01*
X1046916Y400954D01*
X1048582Y402620D01*
X1053580D01*
X1056912Y405952D02*
Y399288D01*
Y402620D01*
X1058578Y404286D01*
X1060245Y405952D01*
X1061911D01*
X1073574Y409285D02*
Y399288D01*
X1068575D01*
X1066909Y400954D01*
Y404286D01*
X1068575Y405952D01*
X1073574D01*
X1088569Y399288D02*
Y407619D01*
Y404286D01*
X1086903D01*
X1090235D01*
X1088569D01*
Y407619D01*
X1090235Y409285D01*
X1096899Y399288D02*
X1100232D01*
X1101898Y400954D01*
Y404286D01*
X1100232Y405952D01*
X1096899D01*
X1095233Y404286D01*
Y400954D01*
X1096899Y399288D01*
X1105230Y405952D02*
Y399288D01*
Y402620D01*
X1106896Y404286D01*
X1108562Y405952D01*
X1110229D01*
X1026414Y379984D02*
Y389981D01*
X1033079Y379984D01*
Y389981D01*
X1038077Y386648D02*
X1041409D01*
X1043075Y384982D01*
Y379984D01*
X1038077D01*
X1036411Y381650D01*
X1038077Y383316D01*
X1043075D01*
X1046408Y379984D02*
Y386648D01*
X1051406D01*
X1053072Y384982D01*
Y379984D01*
X1058071D02*
X1061403D01*
X1063069Y381650D01*
Y384982D01*
X1061403Y386648D01*
X1058071D01*
X1056404Y384982D01*
Y381650D01*
X1058071Y379984D01*
X1076398D02*
Y389981D01*
X1081396D01*
X1083062Y388315D01*
Y384982D01*
X1081396Y383316D01*
X1076398D01*
X1086395Y379984D02*
X1089727D01*
X1088061D01*
Y386648D01*
X1086395D01*
X1104722Y379984D02*
Y389981D01*
X1111387Y379984D01*
Y389981D01*
X1121383D02*
X1114719D01*
Y379984D01*
X1121383D01*
X1114719Y384982D02*
X1118051D01*
X1129714Y389981D02*
X1126382D01*
X1124716Y388315D01*
Y381650D01*
X1126382Y379984D01*
X1129714D01*
X1131380Y381650D01*
Y388315D01*
X1129714Y389981D01*
X973074Y278382D02*
Y273050D01*
X967742Y278382D01*
X966410D01*
X965077Y277049D01*
Y274383D01*
X966410Y273050D01*
Y281047D02*
X965077Y282380D01*
Y285046D01*
X966410Y286379D01*
X971741D01*
X973074Y285046D01*
Y282380D01*
X971741Y281047D01*
X966410D01*
Y289045D02*
X965077Y290378D01*
Y293044D01*
X966410Y294376D01*
X967742D01*
X969075Y293044D01*
Y291711D01*
Y293044D01*
X970408Y294376D01*
X971741D01*
X973074Y293044D01*
Y290378D01*
X971741Y289045D01*
X993648Y340612D02*
Y335280D01*
X988316Y340612D01*
X986983D01*
X985651Y339279D01*
Y336613D01*
X986983Y335280D01*
X1019556Y340612D02*
Y335280D01*
X1014224Y340612D01*
X1012891D01*
X1011559Y339279D01*
Y336613D01*
X1012891Y335280D01*
Y343277D02*
X1011559Y344610D01*
Y347276D01*
X1012891Y348609D01*
X1018223D01*
X1019556Y347276D01*
Y344610D01*
X1018223Y343277D01*
X1012891D01*
Y351275D02*
X1011559Y352608D01*
Y355274D01*
X1012891Y356606D01*
X1018223D01*
X1019556Y355274D01*
Y352608D01*
X1018223Y351275D01*
X1012891D01*
X1039053Y335280D02*
X1037721Y336613D01*
Y339279D01*
X1039053Y340612D01*
X1040386D01*
X1041719Y339279D01*
Y337946D01*
Y339279D01*
X1043052Y340612D01*
X1044385D01*
X1045718Y339279D01*
Y336613D01*
X1044385Y335280D01*
X1070864Y342390D02*
Y337058D01*
X1065532Y342390D01*
X1064200D01*
X1062867Y341057D01*
Y338391D01*
X1064200Y337058D01*
Y345055D02*
X1062867Y346388D01*
Y349054D01*
X1064200Y350387D01*
X1069531D01*
X1070864Y349054D01*
Y346388D01*
X1069531Y345055D01*
X1064200D01*
X1070864Y353053D02*
Y355719D01*
Y354386D01*
X1062867D01*
X1064200Y353053D01*
X1096010Y335280D02*
Y337946D01*
Y336613D01*
X1088013D01*
X1089345Y335280D01*
X1119378Y274320D02*
X1111381D01*
Y278319D01*
X1112713Y279652D01*
X1115379D01*
X1116712Y278319D01*
Y274320D01*
X1111381Y282317D02*
X1119378D01*
Y287649D01*
Y290315D02*
Y292981D01*
Y291648D01*
X1111381D01*
X1112713Y290315D01*
X1119378Y296979D02*
Y299645D01*
Y298312D01*
X1111381D01*
X1112713Y296979D01*
D33*
X274320Y520700D02*
Y607060D01*
X340360D01*
Y524510D02*
Y607060D01*
X336550Y520700D02*
X340360Y524510D01*
X274320Y520700D02*
X336550D01*
X840486Y810876D02*
Y874122D01*
X633984D02*
X840486D01*
X633984Y815956D02*
Y874122D01*
Y815956D02*
X639064Y810876D01*
X840486D01*
X1056386D02*
Y874122D01*
X849884D02*
X1056386D01*
X849884Y815956D02*
Y874122D01*
Y815956D02*
X854964Y810876D01*
X1056386D01*
X826262Y268878D02*
Y332124D01*
Y268878D02*
X956056D01*
Y327044D01*
X950976Y332124D02*
X956056Y327044D01*
X826262Y332124D02*
X950976D01*
X366522Y268878D02*
Y332124D01*
Y268878D02*
X496316D01*
Y327044D01*
X491236Y332124D02*
X496316Y327044D01*
X366522Y332124D02*
X491236D01*
X518922Y268878D02*
Y332124D01*
Y268878D02*
X648716D01*
Y327044D01*
X643636Y332124D02*
X648716Y327044D01*
X518922Y332124D02*
X643636D01*
X624078Y810876D02*
Y874122D01*
X494284D02*
X624078D01*
X494284Y815956D02*
Y874122D01*
Y815956D02*
X499364Y810876D01*
X624078D01*
X671322Y268878D02*
Y332124D01*
Y268878D02*
X801116D01*
Y327044D01*
X796036Y332124D02*
X801116Y327044D01*
X671322Y332124D02*
X796036D01*
X1167238Y664210D02*
Y764794D01*
X1171810Y769366D01*
X1230484D01*
Y664210D02*
Y769366D01*
X1167238Y664210D02*
X1230484D01*
X337712Y376936D02*
Y477520D01*
X333140Y372364D02*
X337712Y376936D01*
X274466Y372364D02*
X333140D01*
X274466D02*
Y477520D01*
X337712D01*
X355854Y871982D02*
X357886Y874014D01*
X477266D02*
X480060Y871220D01*
Y870966D02*
Y871220D01*
Y753110D02*
Y870966D01*
X477520Y750570D02*
X480060Y753110D01*
X358394Y750570D02*
X477520D01*
X355854Y753110D02*
X358394Y750570D01*
X355854Y753110D02*
Y871982D01*
X357886Y874014D02*
X477266D01*
M02*
