G04 Layer_Color=16711935*
%FSLAX44Y44*%
%MOMM*%
G71*
G01*
G75*
%ADD33C,0.2000*%
D33*
X822960Y436880D02*
G03*
X817880Y431800I-0J-5080D01*
G01*
X1097280Y431800D02*
G03*
X1092200Y436880I-5080J0D01*
G01*
Y426720D02*
G03*
X1097280Y431800I-0J5080D01*
G01*
X817880Y431800D02*
G03*
X822960Y426720I5080J0D01*
G01*
X1153160Y629920D02*
G03*
X1148080Y624840I0J-5080D01*
G01*
X1148080Y492760D02*
G03*
X1153160Y487680I5080J0D01*
G01*
D02*
G03*
X1158240Y492760I0J5080D01*
G01*
Y624840D02*
G03*
X1153160Y629920I-5080J-0D01*
G01*
X762000Y629920D02*
G03*
X756920Y624840I-0J-5080D01*
G01*
X756920Y492760D02*
G03*
X762000Y487680I5080J-0D01*
G01*
D02*
G03*
X767080Y492760I0J5080D01*
G01*
X767080Y624840D02*
G03*
X762000Y629920I-5080J0D01*
G01*
X1107440Y431800D02*
G03*
X1112520Y426720I5080J-0D01*
G01*
X1112520Y436880D02*
G03*
X1107440Y431800I0J-5080D01*
G01*
X1143000Y436880D02*
G03*
X1148080Y441960I0J5080D01*
G01*
X1153160Y477520D02*
G03*
X1148080Y472440I0J-5080D01*
G01*
X1158240Y472440D02*
G03*
X1153160Y477520I-5080J0D01*
G01*
X1143000Y426720D02*
G03*
X1158240Y441960I0J15240D01*
G01*
X762000Y477520D02*
G03*
X756920Y472440I-0J-5080D01*
G01*
X767080Y472440D02*
G03*
X762000Y477520I-5080J0D01*
G01*
X767080Y441960D02*
G03*
X772160Y436880I5080J-0D01*
G01*
X807720Y431800D02*
G03*
X802640Y436880I-5080J-0D01*
G01*
X802640Y426720D02*
G03*
X807720Y431800I0J5080D01*
G01*
X756920Y441960D02*
G03*
X772160Y426720I15240J-0D01*
G01*
X822960Y690880D02*
G03*
X817880Y685800I-0J-5080D01*
G01*
X1097280Y685800D02*
G03*
X1092200Y690880I-5080J0D01*
G01*
Y680720D02*
G03*
X1097280Y685800I0J5080D01*
G01*
X817880Y685800D02*
G03*
X822960Y680720I5080J0D01*
G01*
X1153160Y640080D02*
G03*
X1158240Y645160I0J5080D01*
G01*
X1148080Y645160D02*
G03*
X1153160Y640080I5080J0D01*
G01*
X1148080Y675640D02*
G03*
X1143000Y680720I-5080J0D01*
G01*
X1107440Y685800D02*
G03*
X1112520Y680720I5080J0D01*
G01*
X1112520Y690880D02*
G03*
X1107440Y685800I0J-5080D01*
G01*
X1158240Y675640D02*
G03*
X1143000Y690880I-15240J0D01*
G01*
X807720Y685800D02*
G03*
X802640Y690880I-5080J0D01*
G01*
X802640Y680720D02*
G03*
X807720Y685800I0J5080D01*
G01*
X772160Y680720D02*
G03*
X767080Y675640I-0J-5080D01*
G01*
X762000Y640080D02*
G03*
X767080Y645160I-0J5080D01*
G01*
X756920Y645160D02*
G03*
X762000Y640080I5080J0D01*
G01*
X772160Y690880D02*
G03*
X756920Y675640I-0J-15240D01*
G01*
X254000Y279400D02*
G03*
X279400Y254000I25400J-0D01*
G01*
X279400Y889000D02*
G03*
X254000Y863600I-0J-25400D01*
G01*
X1244600Y863600D02*
G03*
X1219200Y889000I-25400J-0D01*
G01*
X1219200Y254000D02*
G03*
X1244600Y279400I0J25400D01*
G01*
X822960Y436880D02*
X1092200Y436880D01*
X822960Y426720D02*
X1092200D01*
X1148080Y624840D02*
X1148080Y492760D01*
X1158240Y492760D02*
Y624840D01*
X756920Y624840D02*
X756920Y492760D01*
X767080Y624840D02*
X767080Y492760D01*
X1112520Y436880D02*
X1143000D01*
X1148080Y472440D02*
X1148080Y441960D01*
X1158240Y441960D02*
X1158240Y472440D01*
X1112520Y426720D02*
X1143000Y426720D01*
X767080Y441960D02*
Y472440D01*
X772160Y436880D02*
X802640Y436880D01*
X772160Y426720D02*
X802640Y426720D01*
X756920Y441960D02*
X756920Y472440D01*
X822960Y690880D02*
X1092200D01*
X822960Y680720D02*
X1092200D01*
X1148080Y645160D02*
Y675640D01*
X1112520Y680720D02*
X1143000Y680720D01*
X1112520Y690880D02*
X1143000Y690880D01*
X1158240Y645160D02*
X1158240Y675640D01*
X772160Y680720D02*
X802640D01*
X767080Y675640D02*
X767080Y645160D01*
X756920Y645160D02*
X756920Y675640D01*
X772160Y690880D02*
X802640Y690880D01*
X254000Y279400D02*
Y863600D01*
X279400Y889000D02*
X1219200Y889000D01*
X1244600Y279400D02*
X1244600Y863600D01*
X279400Y254000D02*
X1219200D01*
M02*
