M48
;Layer_Color=9474304
;FILE_FORMAT=4:4
METRIC,LZ
;TYPE=PLATED
T1F00S00C0.4000
T2F00S00C0.5000
T3F00S00C0.7620
T4F00S00C0.9000
T5F00S00C1.0000
T6F00S00C1.2000
T7F00S00C3.2000
%
T01
X0117856Y003683
T02
X00504698Y00389128
X008636Y0055245
X010541
X00635Y0051435
X0044831Y0054991
X004445Y0061595
X003048Y0067945
Y0076835
X0110998Y008382
T03
X003812Y003937
X004062
X0108625Y007366
X0111125
X004062Y0052451
X00406Y004572
X00381
X003812Y0052451
T04
X006096Y00381
X00635
X006604
X006858
X007112
X007366
X00762
X007874
X008128
X008382
X008636
X00889
Y004064
X008636
X008382
X008128
Y0073025
Y0075565
X008382
X008636
X00889
Y0073025
X008636
X008382
X007874
Y0075565
X00762
X007366
X007112
X006858
X006604
X00635
X006096
X007112Y0073025
X007366
X00762
Y004064
X007874
X007366
X007112
X006858
X006604
X00635
X006096
T05
X003937Y003048
X004191
X004445
X004699
X005461
X005715
X005969
X006223
X006985
X007239
X007493
X007747
X0085344
X0087884
X0090424
X0092964
X009906Y0031115
Y0028575
X01016
X010414
X010668
X010922
Y0031115
X010668
X010414
X01016
X011938Y0069088
Y0071628
Y0074168
X0030734Y0057531
Y0054991
X0031115Y0045085
Y0042545
Y0040005
X005207Y008382
X005461
X005715
X005969
X006604
X006858
X007112
X007366
X00762
X007874
X008128
X008763
X009017
X009271
X009525
X009779
X010033
X010287
T06
X00444246Y00788924
X00467106
X00392176Y00787654
X00369316
X00418084Y00837184
T07
X003048Y003048
X011938
X003048Y008382
X011938
M30
