G04 Layer_Color=32896*
%FSLAX44Y44*%
%MOMM*%
G71*
G01*
G75*
%ADD32C,0.2540*%
%ADD33C,0.2000*%
D32*
X425850Y334890D02*
X475850D01*
X425850D02*
Y444890D01*
X475850D01*
Y334890D02*
Y444890D01*
X480460Y334890D02*
X530460D01*
X480460D02*
Y444890D01*
X530460D01*
Y334890D02*
Y444890D01*
X495300Y519430D02*
Y529427D01*
X490302D01*
X488635Y527761D01*
Y524428D01*
X490302Y522762D01*
X495300D01*
X491968D02*
X488635Y519430D01*
X485303Y527761D02*
X483637Y529427D01*
X480305D01*
X478639Y527761D01*
Y526095D01*
X480305Y524428D01*
X478639Y522762D01*
Y521096D01*
X480305Y519430D01*
X483637D01*
X485303Y521096D01*
Y522762D01*
X483637Y524428D01*
X485303Y526095D01*
Y527761D01*
X483637Y524428D02*
X480305D01*
X453075Y460451D02*
X454742Y462117D01*
X458074D01*
X459740Y460451D01*
Y453786D01*
X458074Y452120D01*
X454742D01*
X453075Y453786D01*
X443079Y452120D02*
X449743D01*
X443079Y458784D01*
Y460451D01*
X444745Y462117D01*
X448077D01*
X449743Y460451D01*
X505908Y460705D02*
X507574Y462371D01*
X510906D01*
X512572Y460705D01*
Y454040D01*
X510906Y452374D01*
X507574D01*
X505908Y454040D01*
X502575Y452374D02*
X499243D01*
X500909D01*
Y462371D01*
X502575Y460705D01*
X355600Y474980D02*
Y484977D01*
X350602D01*
X348936Y483311D01*
Y479978D01*
X350602Y478312D01*
X355600D01*
X352268D02*
X348936Y474980D01*
X345603Y484977D02*
X338939D01*
Y483311D01*
X345603Y476646D01*
Y474980D01*
X353060Y411480D02*
Y421477D01*
X348062D01*
X346395Y419811D01*
Y416478D01*
X348062Y414812D01*
X353060D01*
X349728D02*
X346395Y411480D01*
X336399Y421477D02*
X339731Y419811D01*
X343063Y416478D01*
Y413146D01*
X341397Y411480D01*
X338065D01*
X336399Y413146D01*
Y414812D01*
X338065Y416478D01*
X343063D01*
X1000760Y769620D02*
Y779617D01*
X995762D01*
X994096Y777951D01*
Y774618D01*
X995762Y772952D01*
X1000760D01*
X997428D02*
X994096Y769620D01*
X990763Y777951D02*
X989097Y779617D01*
X985765D01*
X984099Y777951D01*
Y776284D01*
X985765Y774618D01*
X987431D01*
X985765D01*
X984099Y772952D01*
Y771286D01*
X985765Y769620D01*
X989097D01*
X990763Y771286D01*
X1000760Y703580D02*
Y713577D01*
X995762D01*
X994096Y711911D01*
Y708578D01*
X995762Y706912D01*
X1000760D01*
X997428D02*
X994096Y703580D01*
X985765D02*
Y713577D01*
X990763Y708578D01*
X984099D01*
X388620Y366867D02*
Y356870D01*
X383622D01*
X381955Y358536D01*
Y365201D01*
X383622Y366867D01*
X388620D01*
X378623Y356870D02*
X375291D01*
X376957D01*
Y366867D01*
X378623Y365201D01*
X670560Y462280D02*
Y472277D01*
X665562D01*
X663895Y470611D01*
Y467278D01*
X665562Y465612D01*
X670560D01*
X667228D02*
X663895Y462280D01*
X660563D02*
X657231D01*
X658897D01*
Y472277D01*
X660563Y470611D01*
X670560Y431800D02*
Y441797D01*
X665562D01*
X663895Y440131D01*
Y436798D01*
X665562Y435132D01*
X670560D01*
X667228D02*
X663895Y431800D01*
X653899D02*
X660563D01*
X653899Y438465D01*
Y440131D01*
X655565Y441797D01*
X658897D01*
X660563Y440131D01*
X1045210Y392430D02*
Y402427D01*
X1040212D01*
X1038546Y400761D01*
Y397428D01*
X1040212Y395762D01*
X1045210D01*
X1041878D02*
X1038546Y392430D01*
X1028549Y402427D02*
X1035213D01*
Y397428D01*
X1031881Y399095D01*
X1030215D01*
X1028549Y397428D01*
Y394096D01*
X1030215Y392430D01*
X1033547D01*
X1035213Y394096D01*
D33*
X427080Y512740D02*
X472080D01*
X427080D02*
Y533740D01*
X472080D01*
Y512740D02*
Y533740D01*
X324972Y466938D02*
X369972D01*
Y445938D02*
Y466938D01*
X324972Y445938D02*
X369972D01*
X324972D02*
Y466938D01*
X324210Y404200D02*
X369210D01*
Y383200D02*
Y404200D01*
X324210Y383200D02*
X369210D01*
X324210D02*
Y404200D01*
X1056280Y764200D02*
Y785200D01*
X1011280D02*
X1056280D01*
X1011280Y764200D02*
Y785200D01*
Y764200D02*
X1056280D01*
X1056040Y698160D02*
Y719160D01*
X1011040D02*
X1056040D01*
X1011040Y698160D02*
Y719160D01*
Y698160D02*
X1056040D01*
X302260Y374650D02*
X306070Y378460D01*
X302260Y349250D02*
X306070Y345440D01*
X369570D01*
X302260Y349250D02*
Y374650D01*
X306070Y378460D02*
X369570D01*
Y345440D02*
Y378460D01*
X647340Y456860D02*
Y477860D01*
X602340D02*
X647340D01*
X602340Y456860D02*
Y477860D01*
Y456860D02*
X647340D01*
Y426380D02*
Y447380D01*
X602340D02*
X647340D01*
X602340Y426380D02*
Y447380D01*
Y426380D02*
X647340D01*
X1020720Y387010D02*
Y408010D01*
X975720D02*
X1020720D01*
X975720Y387010D02*
Y408010D01*
Y387010D02*
X1020720D01*
M02*
