G04 Layer_Color=8388736*
%FSLAX44Y44*%
%MOMM*%
G71*
G01*
G75*
%ADD34C,2.0032*%
%ADD35R,2.0032X2.0032*%
%ADD36R,2.0032X2.0032*%
%ADD37C,2.2032*%
G04:AMPARAMS|DCode=38|XSize=2.2032mm|YSize=2.2032mm|CornerRadius=0.6016mm|HoleSize=0mm|Usage=FLASHONLY|Rotation=270.000|XOffset=0mm|YOffset=0mm|HoleType=Round|Shape=RoundedRectangle|*
%AMROUNDEDRECTD38*
21,1,2.2032,1.0000,0,0,270.0*
21,1,1.0000,2.2032,0,0,270.0*
1,1,1.2032,-0.5000,-0.5000*
1,1,1.2032,-0.5000,0.5000*
1,1,1.2032,0.5000,0.5000*
1,1,1.2032,0.5000,-0.5000*
%
%ADD38ROUNDEDRECTD38*%
%ADD39O,1.8032X2.2032*%
G04:AMPARAMS|DCode=40|XSize=7.2032mm|YSize=7.2032mm|CornerRadius=1.8516mm|HoleSize=0mm|Usage=FLASHONLY|Rotation=0.000|XOffset=0mm|YOffset=0mm|HoleType=Round|Shape=RoundedRectangle|*
%AMROUNDEDRECTD40*
21,1,7.2032,3.5000,0,0,0.0*
21,1,3.5000,7.2032,0,0,0.0*
1,1,3.7032,1.7500,-1.7500*
1,1,3.7032,-1.7500,-1.7500*
1,1,3.7032,-1.7500,1.7500*
1,1,3.7032,1.7500,1.7500*
%
%ADD40ROUNDEDRECTD40*%
%ADD41O,1.8032X2.0032*%
%ADD42R,1.8032X2.0032*%
%ADD43C,1.8032*%
D34*
X307340Y575310D02*
D03*
X812800Y838200D02*
D03*
X787400D02*
D03*
X762000D02*
D03*
X685800D02*
D03*
X711200D02*
D03*
X736600D02*
D03*
X1028700D02*
D03*
X1003300D02*
D03*
X977900D02*
D03*
X901700D02*
D03*
X927100D02*
D03*
X952500D02*
D03*
X904240Y304800D02*
D03*
X878840D02*
D03*
X853440D02*
D03*
X444500D02*
D03*
X419100D02*
D03*
X393700D02*
D03*
X596900D02*
D03*
X571500D02*
D03*
X546100D02*
D03*
Y838200D02*
D03*
X571500D02*
D03*
X596900D02*
D03*
X749300Y304800D02*
D03*
X723900D02*
D03*
X698500D02*
D03*
X1193800Y690880D02*
D03*
Y716280D02*
D03*
X311150Y450850D02*
D03*
Y425450D02*
D03*
X1016000Y285750D02*
D03*
X1041400D02*
D03*
X1066800D02*
D03*
X990600D02*
D03*
X1092200D02*
D03*
Y311150D02*
D03*
X1066800D02*
D03*
X1041400D02*
D03*
X1016000D02*
D03*
X990600D02*
D03*
D35*
X307340Y549910D02*
D03*
X1193800Y741680D02*
D03*
X311150Y400050D02*
D03*
D36*
X660400Y838200D02*
D03*
X876300D02*
D03*
X929640Y304800D02*
D03*
X469900D02*
D03*
X622300D02*
D03*
X520700Y838200D02*
D03*
X774700Y304800D02*
D03*
D37*
X392176Y787654D02*
D03*
X369316D02*
D03*
X444246Y788924D02*
D03*
X467106D02*
D03*
D38*
X418084Y837184D02*
D03*
D39*
X406200Y524510D02*
D03*
X381200D02*
D03*
X406200Y393700D02*
D03*
X381200D02*
D03*
X406000Y457200D02*
D03*
X381000D02*
D03*
X1111250Y736600D02*
D03*
X1086250D02*
D03*
D40*
X1193800Y304800D02*
D03*
Y838200D02*
D03*
X304800D02*
D03*
Y304800D02*
D03*
D41*
X787400Y406400D02*
D03*
Y381000D02*
D03*
X635000Y755650D02*
D03*
X660400D02*
D03*
X685800D02*
D03*
X711200D02*
D03*
X736600D02*
D03*
X762000D02*
D03*
X889000D02*
D03*
X863600D02*
D03*
X838200D02*
D03*
X787400D02*
D03*
X812800D02*
D03*
X787400Y730250D02*
D03*
X812800D02*
D03*
X838200D02*
D03*
X863600D02*
D03*
X889000D02*
D03*
X762000D02*
D03*
X736600D02*
D03*
X711200D02*
D03*
X609600Y381000D02*
D03*
X635000D02*
D03*
X660400D02*
D03*
X685800D02*
D03*
X711200D02*
D03*
X736600D02*
D03*
X762000D02*
D03*
X863600D02*
D03*
X838200D02*
D03*
X812800D02*
D03*
Y406400D02*
D03*
X838200D02*
D03*
X863600D02*
D03*
X762000D02*
D03*
X736600D02*
D03*
X711200D02*
D03*
X685800D02*
D03*
X660400D02*
D03*
X635000D02*
D03*
D42*
X609600Y755650D02*
D03*
Y406400D02*
D03*
D43*
X889000Y381000D02*
D03*
Y406400D02*
D03*
M02*
